<svg width="30" height="30" viewBox="0 0 30 30" fill="none" xmlns="http://www.w3.org/2000/svg">
<g clip-path="url(#clip0_1176_791)">
<path d="M13.75 8.125C14.4959 8.125 15.2113 7.82868 15.7387 7.30124C16.2662 6.77379 16.5625 6.05842 16.5625 5.3125C16.5625 4.56658 16.2662 3.85121 15.7387 3.32376C15.2113 2.79632 14.4959 2.5 13.75 2.5C13.0041 2.5 12.2887 2.79632 11.7613 3.32376C11.2338 3.85121 10.9375 4.56658 10.9375 5.3125C10.9375 6.05842 11.2338 6.77379 11.7613 7.30124C12.2887 7.82868 13.0041 8.125 13.75 8.125ZM21.875 15.625C21.3777 15.625 20.9008 15.8225 20.5492 16.1742C20.1975 16.5258 20 17.0027 20 17.5V17.7144C20 17.8801 20.0658 18.0391 20.1831 18.1563C20.3003 18.2735 20.4592 18.3394 20.625 18.3394C20.7908 18.3394 20.9497 18.2735 21.0669 18.1563C21.1842 18.0391 21.25 17.8801 21.25 17.7144V17.5C21.25 17.3342 21.3158 17.1753 21.4331 17.0581C21.5503 16.9408 21.7092 16.875 21.875 16.875C22.0408 16.875 22.1997 16.9408 22.3169 17.0581C22.4342 17.1753 22.5 17.3342 22.5 17.5V26.8412C22.5 27.007 22.5658 27.166 22.6831 27.2832C22.8003 27.4004 22.9592 27.4662 23.125 27.4662C23.2908 27.4662 23.4497 27.4004 23.5669 27.2832C23.6842 27.166 23.75 27.007 23.75 26.8412V17.5C23.75 17.0027 23.5525 16.5258 23.2008 16.1742C22.8492 15.8225 22.3723 15.625 21.875 15.625ZM18.5681 12.6119L17.5 12.1456L18.4969 12.5688L18.5681 12.6119ZM19.3344 13.2756C19.1168 13.0141 18.858 12.7899 18.5681 12.6119L22.5 14.33V14.27V14.2712C22.5594 14.9587 22.0281 15.5631 21.3131 15.6213C20.6044 15.6775 19.9806 15.175 19.9125 14.4956V14.4944L19.9031 14.4406C19.8843 14.3489 19.8603 14.2584 19.8312 14.1694C19.7216 13.8436 19.5532 13.5407 19.3344 13.2756Z" fill="#3F3F43"/>
<path fill-rule="evenodd" clip-rule="evenodd" d="M22.5001 14.2694L18.497 12.5694C18.1835 12.3872 17.8487 12.2446 17.5001 12.145V26.25C17.5 26.5707 17.3766 26.879 17.1556 27.1113C16.9345 27.3436 16.6326 27.482 16.3124 27.498C15.9921 27.514 15.6779 27.4062 15.4349 27.1971C15.1918 26.988 15.0384 26.6934 15.0063 26.3744L14.3813 20.1244C14.3772 20.083 14.3751 20.0415 14.3751 20H13.1251C13.1251 20.0417 13.123 20.0831 13.1188 20.1244L12.4938 26.3744C12.4618 26.6934 12.3084 26.988 12.0653 27.1971C11.8222 27.4062 11.5081 27.514 11.1878 27.498C10.8676 27.482 10.5657 27.3436 10.3446 27.1113C10.1236 26.879 10.0002 26.5707 10.0001 26.25V17.4494C8.95071 17.31 8.06884 16.8881 7.41509 16.2462C7.04009 15.8794 6.74348 15.4403 6.54322 14.9555C6.34297 14.4706 6.24324 13.9502 6.25009 13.4256C6.25541 12.9027 6.36419 12.386 6.57014 11.9054C6.7761 11.4247 7.07516 10.9895 7.45009 10.625C8.25634 9.83812 9.40571 9.375 10.7845 9.375H15.3595C18.4676 9.375 20.3245 10.4513 21.372 11.7244C21.7844 12.2235 22.101 12.7945 22.3057 13.4088C22.397 13.6837 22.4682 13.9669 22.4988 14.2544V14.2638L22.5001 14.2675V14.2694ZM9.26946 14.4956C9.43009 14.6531 9.66384 14.8056 10.0001 14.9006V11.9812C9.68759 12.0762 9.46009 12.2244 9.29821 12.3819C9.15618 12.5211 9.04325 12.6872 8.966 12.8704C8.88874 13.0537 8.8487 13.2505 8.84821 13.4494C8.84446 13.8494 8.99321 14.2244 9.26946 14.4956Z" fill="#3F3F43"/>
</g>
<defs>
<clipPath id="clip0_1176_791">
<rect width="30" height="30" fill="white"/>
</clipPath>
</defs>
</svg>
